<?xml version="1.0" standalone="no"?>
<!DOCTYPE svg PUBLIC "-//W3C//DTD SVG 20010904//EN"
 "http://www.w3.org/TR/2001/REC-SVG-20010904/DTD/svg10.dtd">
<svg version="1.0" xmlns="http://www.w3.org/2000/svg"
 width="595.000000pt" height="595.000000pt" viewBox="0 0 595.000000 595.000000"
 preserveAspectRatio="xMidYMid meet">
<metadata>
Created by potrace 1.14, written by Peter Selinger 2001-2017
</metadata>
<g transform="translate(0.000000,595.000000) scale(0.100000,-0.100000)"
fill="#000000" stroke="none">
<path d="M2381 5198 c-107 -19 -212 -104 -252 -205 -31 -78 -32 -247 -3 -397
2 -12 7 -48 10 -81 4 -33 9 -64 12 -69 3 -5 6 -70 8 -145 3 -128 1 -143 -30
-253 l-34 -118 32 22 c54 37 239 229 318 328 159 201 237 332 268 454 69 265
-101 505 -329 464z"/>
<path d="M680 4866 c0 -20 25 -27 108 -32 40 -2 90 -8 111 -14 53 -14 125 -65
161 -113 62 -84 60 -51 60 -1069 0 -510 3 -928 8 -928 4 0 13 9 20 20 15 25
537 697 563 726 18 19 19 46 19 565 0 469 -2 553 -16 599 -30 101 -101 185
-194 229 l-55 26 -392 3 c-335 2 -393 1 -393 -12z"/>
<path d="M3758 4282 c-78 -4 -74 -22 5 -23 178 -3 231 -21 253 -89 8 -27 13
-1127 4 -1139 -3 -4 -43 -36 -90 -71 -117 -88 -288 -239 -455 -402 -77 -76
-142 -138 -145 -138 -4 0 -68 174 -144 388 -151 421 -190 528 -213 582 -110
255 -259 397 -467 445 -62 15 -219 21 -276 11 -14 -2 -47 -8 -75 -12 -63 -9
-65 -10 -127 -25 -43 -12 -58 -22 -99 -73 -27 -33 -47 -61 -46 -62 1 -1 22 -5
46 -9 160 -24 309 -144 405 -327 21 -40 62 -140 91 -223 29 -82 92 -258 140
-390 48 -132 88 -244 89 -250 2 -5 6 -17 9 -25 11 -24 77 -210 97 -270 21 -65
49 -139 80 -215 12 -29 11 -31 -46 -83 -33 -29 -72 -63 -87 -75 -15 -12 -42
-35 -60 -50 -50 -45 -185 -140 -277 -197 -214 -132 -495 -234 -730 -266 -19
-2 -64 -8 -100 -13 -86 -12 -431 -6 -500 8 -230 49 -366 106 -525 222 -138
101 -275 268 -353 432 -73 153 -97 266 -97 457 0 120 17 179 65 225 32 30 107
54 155 49 16 -2 62 -4 102 -4 60 -1 77 2 102 21 58 43 76 145 36 206 -54 81
-154 101 -258 49 -163 -79 -245 -254 -252 -536 -4 -150 9 -246 52 -370 28 -82
100 -233 114 -238 5 -2 9 -10 9 -17 0 -7 3 -15 8 -17 4 -1 26 -29 50 -61 94
-126 249 -257 397 -337 121 -65 272 -113 430 -138 64 -10 457 -9 515 2 19 3
64 11 100 17 288 48 586 173 837 351 76 53 160 118 199 153 67 61 138 120 144
120 4 0 32 -36 61 -80 152 -227 435 -420 774 -529 107 -34 277 -75 345 -82 30
-3 58 -8 62 -10 11 -7 193 -18 291 -17 229 1 408 31 598 99 260 93 458 264
587 504 39 72 81 168 87 200 2 8 8 35 15 60 13 48 14 51 25 120 11 62 13 235
4 284 -4 23 -10 60 -13 83 -14 108 -90 277 -172 384 -247 322 -744 463 -1147
325 -27 -9 -52 -14 -55 -12 -7 4 -6 920 1 946 23 86 55 103 200 108 64 3 117
8 117 13 0 5 -15 9 -32 10 -156 2 -815 3 -860 1z m1187 -1090 c196 -44 352
-127 480 -257 242 -245 315 -615 193 -980 -125 -375 -440 -643 -830 -705 -106
-17 -290 -8 -398 19 -112 29 -284 114 -390 193 -91 67 -257 227 -306 293 -16
22 -35 46 -42 54 -28 29 -150 219 -194 301 -25 47 -60 121 -78 166 l-32 80 99
100 c92 93 228 222 319 305 51 47 245 199 253 199 5 0 7 -637 2 -701 -2 -27
-47 -67 -88 -78 -34 -9 -120 -18 -205 -20 -16 -1 -28 -5 -28 -11 0 -7 265 -10
775 -10 l775 0 90 135 c50 75 94 142 97 150 9 25 -10 17 -53 -23 -23 -21 -68
-51 -100 -67 l-59 -30 -443 -2 c-381 -2 -444 -1 -448 12 -3 8 -7 197 -7 419
l-2 405 55 20 c70 25 127 40 182 47 24 4 45 8 47 10 12 11 257 -7 336 -24z"/>
<path d="M5787 1664 c-16 -17 -4 -30 41 -47 61 -21 99 -51 105 -80 4 -19 4
-18 6 5 1 29 -23 50 -91 82 -21 9 -41 23 -46 32 -4 8 -11 11 -15 8z"/>
<path d="M5723 1534 c-9 -19 -8 -22 6 -22 9 1 42 -11 73 -25 68 -32 79 -33
109 -6 17 15 19 18 5 11 -25 -12 -74 1 -135 37 l-47 28 -11 -23z"/>
<path d="M5655 1411 c-37 -15 -85 -73 -85 -102 0 -72 61 -120 125 -99 99 33
114 168 23 199 -35 13 -36 13 -63 2z m48 -32 c63 -29 68 -126 8 -147 -34 -12
-70 1 -98 36 -31 37 -29 76 3 101 30 24 52 26 87 10z"/>
<path d="M5441 1231 c-10 -6 -10 -10 -1 -13 6 -2 14 -22 16 -46 l4 -42 -28 12
c-15 7 -34 18 -43 25 -15 13 -49 9 -49 -6 0 -4 23 -15 51 -26 51 -20 99 -64
99 -91 0 -11 4 -12 19 -4 18 9 18 11 -10 41 -26 28 -29 38 -29 95 0 64 -3 71
-29 55z"/>
<path d="M3285 1180 c8 -13 -74 -170 -89 -170 -20 0 -26 11 -16 31 8 14 6 20
-8 28 -14 8 -18 5 -19 -12 -3 -28 24 -57 53 -57 20 0 64 45 64 65 0 4 13 29
29 55 l29 48 -24 11 c-15 7 -23 7 -19 1z"/>
<path d="M3422 1039 c-28 -86 -27 -110 4 -133 l26 -19 -16 26 c-16 23 -16 29
4 88 12 35 28 71 36 80 13 15 12 17 -9 21 -21 4 -25 -2 -45 -63z"/>
<path d="M3554 1036 c-1 -49 -45 -129 -74 -137 -23 -7 -23 -7 -3 -8 20 -1 63
33 63 50 0 6 35 86 47 110 2 4 -4 9 -14 11 -14 4 -18 -2 -19 -26z"/>
<path d="M4965 1015 c-16 -7 -25 -14 -19 -14 12 -1 46 -106 48 -148 1 -26 4
-28 29 -25 25 4 26 6 13 21 -8 9 -16 30 -19 46 -2 17 -9 44 -16 60 -20 50 -20
52 -8 64 14 14 9 13 -28 -4z"/>
<path d="M5030 1018 c31 -17 37 -44 14 -69 -9 -10 -15 -20 -13 -22 2 -2 23
-18 47 -36 26 -20 49 -31 59 -27 12 5 6 14 -29 39 -44 32 -44 32 -29 59 21 37
6 62 -40 66 -34 3 -34 2 -9 -10z"/>
<path d="M3714 1002 c-30 -19 -24 -49 16 -89 45 -47 51 -79 18 -93 l-23 -9 23
0 c29 -1 62 32 55 57 -2 11 -22 36 -44 57 -42 39 -50 71 -21 78 12 3 13 5 2 6
-8 0 -20 -3 -26 -7z"/>
<path d="M3799 981 c5 -9 11 -23 14 -31 3 -8 6 -1 6 16 1 20 -4 31 -13 31 -10
0 -12 -5 -7 -16z"/>
<path d="M4703 965 c-68 -29 -84 -105 -33 -157 28 -28 35 -30 82 -26 42 4 57
11 80 37 32 36 35 59 12 107 -22 46 -83 63 -141 39z m100 -35 c25 -41 22 -86
-8 -115 -30 -31 -56 -32 -91 -1 -50 42 -33 141 25 148 41 5 56 -1 74 -32z"/>
<path d="M3927 949 c-5 -20 -5 -20 13 -4 25 23 74 13 66 -13 -3 -9 -8 -42 -11
-72 -4 -30 -11 -63 -16 -72 -7 -13 -6 -18 5 -18 8 0 20 -2 28 -5 10 -4 13 8
14 47 1 29 4 64 7 78 3 14 6 33 6 44 1 15 6 17 28 11 15 -3 32 -14 39 -23 12
-15 13 -15 11 4 -1 19 -11 23 -68 33 -98 16 -116 15 -122 -10z"/>
<path d="M4447 952 c-50 -3 -56 -5 -48 -20 5 -10 9 -54 8 -100 l-2 -82 30 1
c17 0 24 3 18 6 -8 3 -13 23 -13 49 0 43 0 44 34 44 19 0 36 -6 39 -12 2 -7 4
-1 4 14 0 24 -1 25 -28 16 -41 -14 -55 -6 -54 33 0 32 2 34 39 37 24 2 42 -2
47 -10 6 -9 9 -7 9 8 0 11 -6 20 -12 20 -7 -1 -39 -2 -71 -4z"/>
<path d="M3661 864 c-1 -18 4 -31 12 -31 6 0 21 -4 32 -8 17 -6 16 -5 -3 10
-13 9 -27 27 -32 39 -8 19 -9 18 -9 -10z"/>
</g>
</svg>
